<?xml version="1.0" standalone="no"?>
<!DOCTYPE svg PUBLIC "-//W3C//DTD SVG 20010904//EN"
 "http://www.w3.org/TR/2001/REC-SVG-20010904/DTD/svg10.dtd">
<svg version="1.0" xmlns="http://www.w3.org/2000/svg"
 width="252.000000pt" height="387.000000pt" viewBox="0 0 252.000000 387.000000"
 preserveAspectRatio="xMidYMid meet">

<g transform="translate(0.000000,387.000000) scale(0.100000,-0.100000)"
fill="#000000" stroke="none">
<path d="M340 3677 c-49 -25 -50 -28 -50 -562 0 -454 2 -503 17 -525 23 -34
33 -40 70 -40 87 0 87 0 93 390 l5 335 29 56 c37 75 108 146 176 178 47 22 69
26 145 26 78 0 97 -4 147 -28 63 -31 101 -74 132 -151 19 -48 21 -74 24 -406
3 -344 4 -356 24 -377 30 -32 91 -31 123 2 l25 24 0 313 c0 336 4 367 54 453
33 55 106 121 164 147 37 17 67 22 142 22 84 0 101 -3 146 -26 57 -30 101 -80
130 -148 17 -40 19 -82 24 -408 l5 -364 24 -19 c35 -28 92 -25 122 7 l24 26 0
356 c0 306 -3 366 -17 419 -23 84 -51 136 -101 190 -78 85 -174 123 -309 123
-167 0 -309 -81 -403 -230 l-27 -43 -36 67 c-70 133 -174 195 -339 204 -114 5
-202 -18 -285 -78 -55 -39 -118 -113 -137 -161 -7 -18 -10 3 -10 79 -1 101 -2
104 -30 133 -32 31 -61 36 -101 16z m701 -41 c32 -14 63 -34 70 -43 11 -13 6
-12 -26 4 -54 28 -161 53 -221 53 -28 0 -83 -8 -122 -19 -40 -10 -72 -17 -72
-15 0 7 60 34 97 44 21 5 79 8 128 6 73 -2 101 -8 146 -30z m836 5 c28 -13 59
-32 69 -42 15 -17 10 -16 -37 6 -106 48 -211 57 -327 26 -40 -10 -72 -17 -72
-15 0 5 69 35 105 45 56 15 205 4 262 -20z m-1450 -11 c14 -28 18 -174 4 -166
-4 3 -11 38 -13 77 -6 83 -22 104 -73 93 -27 -6 -28 -5 -16 10 22 26 82 18 98
-14z m833 -1021 c-9 -16 -19 -19 -52 -17 -23 2 -43 8 -45 14 -2 6 7 9 24 7 57
-7 59 0 75 357 1 36 4 -26 5 -138 2 -132 0 -210 -7 -223z m-841 -5 c-14 -18
-73 -18 -87 -1 -9 10 -4 12 22 9 52 -6 56 7 64 210 l7 183 3 -194 c2 -134 -1
-198 -9 -207z m1681 202 c0 -154 -3 -187 -16 -200 -19 -20 -78 -21 -94 -1 -10
12 -7 13 22 9 23 -4 38 -1 46 8 9 12 31 243 32 341 0 15 2 27 5 27 3 0 5 -83
5 -184z"/>
<path d="M737 3082 c-35 -39 -13 -92 38 -92 58 0 81 42 49 88 -19 27 -64 29
-87 4z m81 -9 c2 -9 -5 -11 -26 -7 -17 4 -32 1 -36 -5 -4 -6 -11 -11 -17 -11
-5 0 -4 9 3 20 14 23 68 25 76 3z"/>
<path d="M1606 3087 c-12 -9 -17 -23 -14 -47 6 -62 76 -73 107 -18 30 53 -41
103 -93 65z m69 -7 c3 -5 -3 -10 -15 -10 -12 0 -30 -5 -41 -10 -23 -13 -25 -7
-3 14 17 18 50 21 59 6z"/>
<path d="M1875 2393 c-75 -5 -105 -29 -105 -83 0 -57 35 -83 116 -88 l66 -4
-7 -51 c-20 -145 -86 -270 -204 -387 -99 -98 -165 -140 -288 -183 -82 -29 -97
-31 -233 -32 -125 0 -156 3 -220 23 -74 23 -181 76 -230 114 -62 47 -147 139
-190 205 -58 88 -87 176 -101 308 -9 86 -14 103 -36 123 -57 52 -143 4 -143
-81 0 -102 45 -279 95 -378 113 -219 333 -395 576 -461 111 -30 366 -32 469
-5 225 61 427 204 549 391 71 110 131 280 131 375 0 39 1 41 30 41 51 0 95 24
110 60 12 29 11 37 -6 69 -11 20 -30 38 -44 42 -26 7 -229 8 -335 2z m115 -35
c-41 -4 -94 -11 -117 -14 -24 -3 -50 -12 -58 -20 -21 -22 -20 4 2 28 14 16 31
18 132 17 l116 -2 -75 -9z m-944 -798 c143 -20 317 -11 469 26 15 3 13 1 -6
-10 -96 -55 -339 -73 -482 -36 -71 19 -187 64 -187 73 0 2 31 -7 69 -20 38
-12 100 -27 137 -33z"/>
<path d="M96 965 c-3 -9 -6 -72 -6 -140 0 -100 3 -125 16 -136 29 -24 48 1 54
72 5 62 5 63 20 39 9 -14 24 -42 35 -62 33 -65 44 -61 98 32 l32 55 5 -62 c6
-70 21 -94 48 -77 14 9 17 30 20 130 3 138 -1 164 -28 164 -16 0 -60 -46 -60
-63 0 -17 -74 -127 -81 -120 -4 4 -30 46 -57 93 -49 86 -82 111 -96 75z"/>
<path d="M1473 968 c-5 -7 -24 -47 -43 -88 -18 -41 -42 -94 -52 -117 -24 -51
-20 -77 10 -81 18 -3 25 3 33 27 11 30 12 31 75 31 60 0 65 -2 74 -25 12 -32
37 -42 56 -23 16 16 20 5 -78 221 -31 67 -53 83 -75 55z m45 -131 c17 -46 16
-47 -23 -47 -40 0 -40 -1 -21 45 19 44 29 44 44 2z"/>
<path d="M1816 965 c-3 -9 -6 -72 -6 -140 0 -93 3 -125 14 -134 9 -8 45 -11
97 -9 73 3 84 5 87 22 5 26 -15 36 -75 36 l-52 0 -3 118 -3 117 -26 3 c-17 2
-29 -3 -33 -13z"/>
<path d="M445 450 c-61 -25 -89 -102 -60 -164 46 -96 186 -85 202 17 l6 37
-41 0 c-22 0 -44 -4 -47 -10 -4 -6 10 -10 34 -10 l40 0 -11 -31 c-12 -36 -64
-63 -103 -53 -14 3 -37 20 -51 37 -22 26 -25 38 -21 76 8 73 77 113 138 81 13
-8 19 -7 19 0 0 12 -43 30 -68 29 -9 0 -26 -4 -37 -9z"/>
<path d="M2073 450 c-12 -5 -25 -21 -29 -35 -8 -32 12 -55 76 -87 33 -17 46
-30 48 -49 5 -47 -65 -61 -110 -21 -10 8 -18 11 -18 5 0 -41 95 -58 130 -23
40 40 23 74 -52 110 -54 26 -69 49 -48 75 17 20 59 19 82 -2 22 -20 33 -13 15
10 -15 21 -65 30 -94 17z"/>
<path d="M836 340 c-27 -61 -46 -114 -43 -117 4 -3 14 11 23 31 17 35 19 36
76 36 59 0 59 0 75 -37 9 -21 18 -33 20 -26 5 14 -82 216 -94 220 -5 2 -31
-46 -57 -107z m104 -31 c0 -5 -22 -9 -50 -9 -27 0 -50 2 -50 5 0 2 12 30 26
62 l26 58 24 -54 c13 -29 24 -57 24 -62z"/>
<path d="M1212 333 c2 -116 2 -117 5 -25 2 50 7 92 11 92 4 0 27 -38 52 -85
24 -47 48 -84 53 -82 5 1 30 42 55 90 l47 88 6 -98 5 -98 2 120 c2 138 2 138
-70 3 -23 -43 -44 -78 -47 -78 -3 0 -28 43 -56 95 -27 52 -53 95 -57 95 -5 0
-7 -53 -6 -117z"/>
<path d="M1680 335 l0 -115 70 0 c40 0 70 4 70 10 0 6 -27 10 -60 10 l-60 0 0
45 0 45 46 0 c27 0 43 4 39 10 -3 6 -24 10 -46 10 l-39 0 0 45 0 44 63 4 62 3
-72 2 -73 2 0 -115z"/>
</g>
</svg>
